<svg width="122" height="126" viewBox="0 0 122 126" fill="none" xmlns="http://www.w3.org/2000/svg">
<path id="Vector" d="M7.91683 126.002C6.84 126.002 5.93758 125.638 5.20958 124.91C4.48664 124.182 4.12516 123.282 4.12516 122.211V100.333C4.12516 96.9657 5.32586 94.0841 7.72725 91.6877C10.1236 89.2864 13.0052 88.0857 16.3722 88.0857H105.628C108.995 88.0857 111.877 89.2838 114.273 91.6801C116.674 94.0815 117.875 96.9657 117.875 100.333V122.211C117.875 123.282 117.511 124.182 116.783 124.91C116.055 125.638 115.153 126.002 114.076 126.002C112.999 126.002 112.099 125.638 111.376 124.91C110.653 124.182 110.292 123.282 110.292 122.211V100.333C110.292 98.9677 109.855 97.8505 108.98 96.9809C108.105 96.1114 106.988 95.674 105.628 95.669H16.3722C15.0123 95.669 13.895 96.1063 13.0204 96.9809C12.1458 97.8555 11.7085 98.9728 11.7085 100.333V122.211C11.7085 123.282 11.3445 124.182 10.6165 124.91C9.8885 125.638 8.99366 126.002 7.91683 126.002ZM7.932 75.5428C5.83394 75.5428 4.04175 74.8072 2.55541 73.3361C1.07414 71.8649 0.333496 70.0778 0.333496 67.9746C0.333496 65.8715 1.06908 64.0793 2.54025 62.5981C4.01141 61.1168 5.79855 60.3762 7.90166 60.3762C9.99972 60.3762 11.7919 61.1092 13.2782 62.5753C14.7595 64.0515 15.5002 65.8412 15.5002 67.9443C15.5002 70.0424 14.7646 71.8346 13.2934 73.3209C11.8222 74.8022 10.0351 75.5428 7.932 75.5428ZM28.9151 74.6631V13.1244C28.9151 9.7574 30.1158 6.87574 32.5172 4.4794C34.9135 2.07801 37.7952 0.877319 41.1622 0.877319H80.8306C84.2026 0.877319 87.0868 2.07549 89.4832 4.47182C91.8846 6.87321 93.0853 9.7574 93.0853 13.1244V74.6631H28.9151ZM114.099 75.5428C112.001 75.5428 110.208 74.8072 108.722 73.3361C107.241 71.8649 106.5 70.0778 106.5 67.9746C106.5 65.8715 107.236 64.0793 108.707 62.5981C110.178 61.1168 111.965 60.3762 114.068 60.3762C116.166 60.3762 117.959 61.1092 119.445 62.5753C120.926 64.0515 121.667 65.8412 121.667 67.9443C121.667 70.0424 120.931 71.8346 119.46 73.3209C117.989 74.8022 116.202 75.5428 114.099 75.5428ZM36.506 67.0798H85.5095V13.1244C85.5095 11.7594 85.0722 10.6421 84.1976 9.77257C83.323 8.90301 82.2032 8.46571 80.8382 8.46065H41.1773C39.8123 8.46065 38.6925 8.89796 37.8179 9.77257C36.9433 10.6472 36.506 11.7645 36.506 13.1244V67.0798Z" fill="white"/>
</svg>
